<?xml version="1.0" encoding="UTF-8"?>
<svg xmlns="http://www.w3.org/2000/svg" xmlns:xlink="http://www.w3.org/1999/xlink" width="16px" height="16px" viewBox="0 0 16 16" version="1.1">
<g id="surface1">
<path style=" stroke:none;fill-rule:nonzero;fill:rgb(95.686275%,26.274511%,21.176471%);fill-opacity:1;" d="M 8.582031 1.867188 L 8.117188 2.71875 C 7.003906 4.742188 5.890625 6.761719 4.78125 8.78125 L 3.800781 7.800781 L 3.460938 8.363281 C 2.460938 10.027344 1.464844 11.695312 0.464844 13.359375 L 0 14.132812 L 16 14.132812 L 15.695312 13.417969 C 15.179688 12.226562 14.671875 11.03125 14.160156 9.835938 L 13.863281 9.144531 L 12.804688 10.203125 C 11.539062 7.710938 10.277344 5.222656 9.015625 2.734375 Z M 8.542969 4.054688 C 9.0625 5.078125 9.582031 6.101562 10.097656 7.121094 L 9.699219 7.460938 L 8.535156 6.460938 L 7.367188 7.460938 L 6.894531 7.054688 C 7.445312 6.054688 7.992188 5.054688 8.542969 4.054688 Z M 8.539062 7.8125 L 9.703125 8.8125 L 10.574219 8.066406 C 11.121094 9.144531 11.664062 10.21875 12.210938 11.292969 L 12.53125 11.925781 L 13.519531 10.9375 C 13.828125 11.664062 14.140625 12.386719 14.449219 13.109375 L 1.804688 13.109375 C 2.539062 11.890625 3.269531 10.667969 4.003906 9.449219 L 5.019531 10.464844 L 5.347656 9.867188 C 5.695312 9.234375 6.042969 8.601562 6.390625 7.96875 L 7.367188 8.808594 Z M 8.539062 7.8125 "/>
</g>
</svg>
